# xmcd
#
# Track frame offsets: 
#        150
#        14983
#        26559
#        42983
#        59328
#        72627
#        94545
#        106781
#        121797
#        131531
#        152289
#        165275
#        177619
#
# Disc length: 2645 seconds
#
# Revision: 1
# Processed by: cddbd v1.5.2PL0 Copyright (c) Steve Scherf et al.
# Submitted via: ExactAudioCopy v1.0b4
#
DISCID=a60a530d
DTITLE=Victor Wainwright and The Wildroots - Boom Town
DYEAR=2015
DGENRE=Blues
TTITLE0=Boom Town
TTITLE1=Saturday Night Sunday Morning
TTITLE2=Stop Bossin' Me Baby
TTITLE3=If It Ain't Got Soul - Part 1
TTITLE4=When The Day Is Done
TTITLE5=Genuine Southern Hospitality
TTITLE6=Two Lane Blacktop Revisited
TTITLE7=WildRoot Farm
TTITLE8=Piana's Savannah Boogie
TTITLE9=The Devil's Bite
TTITLE10=Reaper's On The Prowl
TTITLE11=Back On Top
TTITLE12=WildRoot Rumble
EXTD=
EXTT0=
EXTT1=
EXTT2=
EXTT3=
EXTT4=
EXTT5=
EXTT6=
EXTT7=
EXTT8=
EXTT9=
EXTT10=
EXTT11=
EXTT12=
PLAYORDER=
